{
	"asset":{
		"generator":"Khronos glTF Blender I/O v3.6.27",
		"version":"2.0"
	},
	"extensionsUsed":[
		"KHR_materials_specular",
		"KHR_materials_ior",
		"KHR_texture_transform",
		"KHR_materials_emissive_strength"
	],
	"extensionsRequired":[
		"KHR_texture_transform"
	],
	"scene":0,
	"scenes":[
		{
			"name":"Scene",
			"nodes":[
				0,
				1,
				2,
				3,
				4,
				5,
				6,
				7,
				8,
				9,
				10,
				11,
				12,
				13
			]
		}
	],
	"nodes":[
		{
			"mesh":0,
			"name":"support",
			"scale":[
				0.03629171848297119,
				0.030743777751922607,
				1
			],
			"translation":[
				-0.7393770217895508,
				0.02165008895099163,
				0
			]
		},
		{
			"mesh":1,
			"name":"inner screen",
			"rotation":[
				0.7071068286895752,
				0.7071068286895752,
				0,
				0
			],
			"scale":[
				-0.7029510736465454,
				-0.05194544792175293,
				-1
			],
			"translation":[
				-0.7549999952316284,
				0.7550038695335388,
				0
			]
		},
		{
			"mesh":2,
			"name":"screen back",
			"rotation":[
				0.7071068286895752,
				0.7071068286895752,
				0,
				0
			],
			"scale":[
				-0.7029510736465454,
				-0.05194544792175293,
				-1
			],
			"translation":[
				-0.7549999952316284,
				0.7550038695335388,
				0
			]
		},
		{
			"mesh":3,
			"name":"camera",
			"rotation":[
				0,
				0,
				-0.7110834121704102,
				0.7031077146530151
			],
			"scale":[
				0.021471168845891953,
				0.0010852278210222721,
				0.021471168845891953
			],
			"translation":[
				-0.7797650098800659,
				1.422216773033142,
				-0.013887768611311913
			]
		},
		{
			"mesh":4,
			"name":"camera 2",
			"rotation":[
				0,
				0,
				-0.709099292755127,
				0.7051087021827698
			],
			"scale":[
				0.008453020825982094,
				0.00042724513332359493,
				0.00845301989465952
			],
			"translation":[
				-0.779177188873291,
				1.422216773033142,
				-0.05867268890142441
			]
		},
		{
			"mesh":5,
			"name":"camera inner",
			"rotation":[
				0,
				0,
				-0.7110834121704102,
				0.7031077146530151
			],
			"scale":[
				0.021471168845891953,
				0.0010852278210222721,
				0.021471168845891953
			],
			"translation":[
				-0.7797650098800659,
				1.422216773033142,
				-0.013887768611311913
			]
		},
		{
			"mesh":6,
			"name":"screen front",
			"rotation":[
				0.7071068286895752,
				0.7071068286895752,
				0,
				0
			],
			"scale":[
				-0.7029510736465454,
				-0.05194544792175293,
				-1
			],
			"translation":[
				-0.7549999952316284,
				0.7550038695335388,
				0
			]
		},
		{
			"mesh":7,
			"name":"base",
			"rotation":[
				0,
				1,
				0,
				0
			],
			"scale":[
				-0.6986075639724731,
				-0.03386002779006958,
				-1
			],
			"translation":[
				-0.004452483728528023,
				0.01887064054608345,
				0
			]
		},
		{
			"mesh":8,
			"name":"buttons",
			"rotation":[
				0,
				1,
				0,
				0
			],
			"scale":[
				-0.6986075639724731,
				-0.03386002779006958,
				-1
			],
			"translation":[
				-0.004452483728528023,
				0.01887064054608345,
				0
			]
		},
		{
			"mesh":9,
			"name":"middle",
			"rotation":[
				0,
				1,
				0,
				0
			],
			"scale":[
				-0.6986075639724731,
				-0.03386002779006958,
				-1
			],
			"translation":[
				-0.004452483728528023,
				0.01887064054608345,
				0
			]
		},
		{
			"mesh":10,
			"name":"touchpad",
			"rotation":[
				0,
				1,
				0,
				0
			],
			"scale":[
				-0.6986075639724731,
				-0.03386002779006958,
				-1
			],
			"translation":[
				-0.004452483728528023,
				0.01887064054608345,
				0
			]
		},
		{
			"mesh":11,
			"name":"inner touchpad",
			"rotation":[
				0,
				1,
				0,
				0
			],
			"scale":[
				-0.6986075639724731,
				-0.03386002779006958,
				-1
			],
			"translation":[
				-0.004452483728528023,
				0.01887064054608345,
				0
			]
		},
		{
			"mesh":12,
			"name":"ventilation",
			"rotation":[
				0,
				1,
				0,
				0
			],
			"scale":[
				-0.6986075639724731,
				-0.03386002779006958,
				-1
			],
			"translation":[
				-0.004452483728528023,
				0.01887064054608345,
				0
			]
		},
		{
			"mesh":13,
			"name":"power button",
			"rotation":[
				0,
				1,
				0,
				0
			],
			"scale":[
				-0.6986075639724731,
				-0.03386002779006958,
				-1
			],
			"translation":[
				-0.004452483728528023,
				0.01887064054608345,
				0
			]
		}
	],
	"materials":[
		{
			"doubleSided":true,
			"extensions":{
				"KHR_materials_specular":{
					"specularColorFactor":[
						1.185678807220699,
						1.185678807220699,
						1.185678807220699
					]
				},
				"KHR_materials_ior":{
					"ior":1.4500000476837158
				}
			},
			"name":"base",
			"pbrMetallicRoughness":{
				"baseColorFactor":[
					0.3940698206424713,
					0.3940698206424713,
					0.3940698206424713,
					1
				],
				"metallicFactor":0.800000011920929,
				"roughnessFactor":0.2199999988079071
			}
		},
		{
			"doubleSided":true,
			"emissiveFactor":[
				1,
				1,
				1
			],
			"emissiveTexture":{
				"extensions":{
					"KHR_texture_transform":{
						"offset":[
							1.4999999701976767,
							0.6000000675532479
						],
						"rotation":-1.5707963705062866
					}
				},
				"index":0
			},
			"extensions":{
				"KHR_materials_emissive_strength":{
					"emissiveStrength":1.8999998569488525
				},
				"KHR_materials_specular":{
					"specularColorFactor":[
						1.185678807220699,
						1.185678807220699,
						1.185678807220699
					]
				},
				"KHR_materials_ior":{
					"ior":1.4500000476837158
				}
			},
			"name":"screen_inner",
			"pbrMetallicRoughness":{
				"baseColorFactor":[
					0.012046518735587597,
					0.012046518735587597,
					0.012046518735587597,
					1
				],
				"metallicFactor":0.07636363804340363,
				"roughnessFactor":0.07818183302879333
			}
		},
		{
			"doubleSided":true,
			"name":"camera",
			"pbrMetallicRoughness":{
				"baseColorFactor":[
					0.019804704934358597,
					0.019804704934358597,
					0.019804704934358597,
					1
				],
				"metallicFactor":0,
				"roughnessFactor":0.19090908765792847
			}
		},
		{
			"doubleSided":true,
			"name":"camera_lens",
			"pbrMetallicRoughness":{
				"baseColorFactor":[
					0.05410310626029968,
					0.05410310626029968,
					0.05410310626029968,
					1
				],
				"metallicFactor":0.6909090876579285,
				"roughnessFactor":0
			}
		},
		{
			"doubleSided":true,
			"name":"screen_front",
			"pbrMetallicRoughness":{
				"baseColorFactor":[
					0.012046518735587597,
					0.012046518735587597,
					0.012046518735587597,
					1
				],
				"metallicFactor":0,
				"roughnessFactor":0.5
			}
		},
		{
			"doubleSided":true,
			"extensions":{
				"KHR_materials_specular":{
					"specularColorFactor":[
						1.185678807220699,
						1.185678807220699,
						1.185678807220699
					]
				},
				"KHR_materials_ior":{
					"ior":1.4500000476837158
				}
			},
			"name":"buttons",
			"pbrMetallicRoughness":{
				"baseColorFactor":[
					0.27772077918052673,
					0.27772077918052673,
					0.27772077918052673,
					1
				],
				"metallicFactor":0.800000011920929,
				"roughnessFactor":0.36181819438934326
			}
		},
		{
			"doubleSided":true,
			"extensions":{
				"KHR_materials_specular":{
					"specularColorFactor":[
						0.849377219934285,
						0.849377219934285,
						0.849377219934285
					]
				},
				"KHR_materials_ior":{
					"ior":1.4500000476837158
				}
			},
			"name":"touchpad",
			"pbrMetallicRoughness":{
				"baseColorFactor":[
					0.585075855255127,
					0.585075855255127,
					0.585075855255127,
					1
				],
				"roughnessFactor":0.31090909242630005
			}
		},
		{
			"doubleSided":true,
			"extensions":{
				"KHR_materials_specular":{
					"specularColorFactor":[
						0.849377219934285,
						0.849377219934285,
						0.849377219934285
					]
				},
				"KHR_materials_ior":{
					"ior":1.4500000476837158
				}
			},
			"name":"touchpad_inner",
			"pbrMetallicRoughness":{
				"baseColorFactor":[
					0.10809822380542755,
					0.10809822380542755,
					0.10809822380542755,
					1
				],
				"metallicFactor":0.42181819677352905,
				"roughnessFactor":0.49272727966308594
			}
		},
		{
			"doubleSided":true,
			"emissiveFactor":[
				1,
				0.9717995524406433,
				0.9717995524406433
			],
			"extensions":{
				"KHR_materials_emissive_strength":{
					"emissiveStrength":2.90000057220459
				},
				"KHR_materials_specular":{
					"specularColorFactor":[
						1.185678807220699,
						1.185678807220699,
						1.185678807220699
					]
				},
				"KHR_materials_ior":{
					"ior":1.4500000476837158
				}
			},
			"name":"power_button",
			"pbrMetallicRoughness":{
				"baseColorFactor":[
					0.3940698206424713,
					0.3940698206424713,
					0.3940698206424713,
					1
				],
				"metallicFactor":0.800000011920929,
				"roughnessFactor":0.2199999988079071
			}
		}
	],
	"meshes":[
		{
			"name":"Cube.002",
			"primitives":[
				{
					"attributes":{
						"POSITION":0,
						"NORMAL":1,
						"TEXCOORD_0":2
					},
					"indices":3,
					"material":0
				}
			]
		},
		{
			"name":"Cube.003",
			"primitives":[
				{
					"attributes":{
						"POSITION":4,
						"NORMAL":5,
						"TEXCOORD_0":6
					},
					"indices":7,
					"material":1
				}
			]
		},
		{
			"name":"Cube.001",
			"primitives":[
				{
					"attributes":{
						"POSITION":8,
						"NORMAL":9,
						"TEXCOORD_0":10
					},
					"indices":11,
					"material":0
				}
			]
		},
		{
			"name":"Cylinder",
			"primitives":[
				{
					"attributes":{
						"POSITION":12,
						"NORMAL":13,
						"TEXCOORD_0":14
					},
					"indices":15,
					"material":2
				}
			]
		},
		{
			"name":"Cylinder.001",
			"primitives":[
				{
					"attributes":{
						"POSITION":16,
						"NORMAL":17,
						"TEXCOORD_0":18
					},
					"indices":19,
					"material":2
				}
			]
		},
		{
			"name":"Cylinder.002",
			"primitives":[
				{
					"attributes":{
						"POSITION":20,
						"NORMAL":21,
						"TEXCOORD_0":22
					},
					"indices":23,
					"material":3
				}
			]
		},
		{
			"name":"Cube.011",
			"primitives":[
				{
					"attributes":{
						"POSITION":24,
						"NORMAL":25,
						"TEXCOORD_0":26
					},
					"indices":27,
					"material":4
				}
			]
		},
		{
			"name":"Cube.004",
			"primitives":[
				{
					"attributes":{
						"POSITION":28,
						"NORMAL":29,
						"TEXCOORD_0":30
					},
					"indices":31,
					"material":0
				}
			]
		},
		{
			"name":"Cube.006",
			"primitives":[
				{
					"attributes":{
						"POSITION":32,
						"NORMAL":33,
						"TEXCOORD_0":34
					},
					"indices":35,
					"material":5
				}
			]
		},
		{
			"name":"Cube.005",
			"primitives":[
				{
					"attributes":{
						"POSITION":36,
						"NORMAL":37,
						"TEXCOORD_0":38
					},
					"indices":39,
					"material":0
				}
			]
		},
		{
			"name":"Cube.007",
			"primitives":[
				{
					"attributes":{
						"POSITION":40,
						"NORMAL":41,
						"TEXCOORD_0":42
					},
					"indices":43,
					"material":6
				}
			]
		},
		{
			"name":"Cube.008",
			"primitives":[
				{
					"attributes":{
						"POSITION":44,
						"NORMAL":45,
						"TEXCOORD_0":46
					},
					"indices":47,
					"material":7
				}
			]
		},
		{
			"name":"Cube.009",
			"primitives":[
				{
					"attributes":{
						"POSITION":48,
						"NORMAL":49,
						"TEXCOORD_0":50
					},
					"indices":51,
					"material":0
				}
			]
		},
		{
			"name":"Cube.010",
			"primitives":[
				{
					"attributes":{
						"POSITION":52,
						"NORMAL":53,
						"TEXCOORD_0":54
					},
					"indices":55,
					"material":8
				}
			]
		}
	],
	"textures":[
		{
			"sampler":0,
			"source":0
		}
	],
	"images":[
		{
			"mimeType":"image/png",
			"name":"logo",
			"uri":"logo.png"
		}
	],
	"accessors":[
		{
			"bufferView":0,
			"componentType":5126,
			"count":24,
			"max":[
				1,
				1,
				1
			],
			"min":[
				0.026994138956069946,
				0.010565221309661865,
				-1
			],
			"type":"VEC3"
		},
		{
			"bufferView":1,
			"componentType":5126,
			"count":24,
			"type":"VEC3"
		},
		{
			"bufferView":2,
			"componentType":5126,
			"count":24,
			"type":"VEC2"
		},
		{
			"bufferView":3,
			"componentType":5123,
			"count":36,
			"type":"SCALAR"
		},
		{
			"bufferView":4,
			"componentType":5126,
			"count":4,
			"max":[
				0.8162704706192017,
				0.798706591129303,
				0.9516441822052002
			],
			"min":[
				-0.8971714377403259,
				-0.6216451525688171,
				-0.9516441822052002
			],
			"type":"VEC3"
		},
		{
			"bufferView":5,
			"componentType":5126,
			"count":4,
			"type":"VEC3"
		},
		{
			"bufferView":6,
			"componentType":5126,
			"count":4,
			"type":"VEC2"
		},
		{
			"bufferView":7,
			"componentType":5123,
			"count":6,
			"type":"SCALAR"
		},
		{
			"bufferView":8,
			"componentType":5126,
			"count":36,
			"max":[
				1,
				1,
				1
			],
			"min":[
				-1,
				-1,
				-1
			],
			"type":"VEC3"
		},
		{
			"bufferView":9,
			"componentType":5126,
			"count":36,
			"type":"VEC3"
		},
		{
			"bufferView":10,
			"componentType":5126,
			"count":36,
			"type":"VEC2"
		},
		{
			"bufferView":11,
			"componentType":5123,
			"count":54,
			"type":"SCALAR"
		},
		{
			"bufferView":12,
			"componentType":5126,
			"count":72,
			"max":[
				1,
				1.6138689517974854,
				1
			],
			"min":[
				-1,
				-1,
				-1
			],
			"type":"VEC3"
		},
		{
			"bufferView":13,
			"componentType":5126,
			"count":72,
			"type":"VEC3"
		},
		{
			"bufferView":14,
			"componentType":5126,
			"count":72,
			"type":"VEC2"
		},
		{
			"bufferView":15,
			"componentType":5123,
			"count":114,
			"type":"SCALAR"
		},
		{
			"bufferView":16,
			"componentType":5126,
			"count":80,
			"max":[
				1,
				1.6138689517974854,
				1
			],
			"min":[
				-1,
				-1,
				-1
			],
			"type":"VEC3"
		},
		{
			"bufferView":17,
			"componentType":5126,
			"count":80,
			"type":"VEC3"
		},
		{
			"bufferView":18,
			"componentType":5126,
			"count":80,
			"type":"VEC2"
		},
		{
			"bufferView":19,
			"componentType":5123,
			"count":132,
			"type":"SCALAR"
		},
		{
			"bufferView":20,
			"componentType":5126,
			"count":8,
			"max":[
				0.294360488653183,
				1.229694128036499,
				0.29977017641067505
			],
			"min":[
				-0.2677103281021118,
				0.770305871963501,
				-0.29977017641067505
			],
			"type":"VEC3"
		},
		{
			"bufferView":21,
			"componentType":5126,
			"count":8,
			"type":"VEC3"
		},
		{
			"bufferView":22,
			"componentType":5126,
			"count":8,
			"type":"VEC2"
		},
		{
			"bufferView":23,
			"componentType":5123,
			"count":18,
			"type":"SCALAR"
		},
		{
			"bufferView":24,
			"componentType":5126,
			"count":16,
			"max":[
				1,
				0.477825403213501,
				1
			],
			"min":[
				-1,
				-1,
				-1
			],
			"type":"VEC3"
		},
		{
			"bufferView":25,
			"componentType":5126,
			"count":16,
			"type":"VEC3"
		},
		{
			"bufferView":26,
			"componentType":5126,
			"count":16,
			"type":"VEC2"
		},
		{
			"bufferView":27,
			"componentType":5123,
			"count":24,
			"type":"SCALAR"
		},
		{
			"bufferView":28,
			"componentType":5126,
			"count":468,
			"max":[
				1,
				0.4660772979259491,
				1
			],
			"min":[
				-1,
				-1.0931953191757202,
				-1
			],
			"type":"VEC3"
		},
		{
			"bufferView":29,
			"componentType":5126,
			"count":468,
			"type":"VEC3"
		},
		{
			"bufferView":30,
			"componentType":5126,
			"count":468,
			"type":"VEC2"
		},
		{
			"bufferView":31,
			"componentType":5123,
			"count":1506,
			"type":"SCALAR"
		},
		{
			"bufferView":32,
			"componentType":5126,
			"count":3470,
			"max":[
				0.5153602361679077,
				-0.7697566747665405,
				0.96470707654953
			],
			"min":[
				-0.4229600727558136,
				-1.0127698183059692,
				-0.9633294939994812
			],
			"type":"VEC3"
		},
		{
			"bufferView":33,
			"componentType":5126,
			"count":3470,
			"type":"VEC3"
		},
		{
			"bufferView":34,
			"componentType":5126,
			"count":3470,
			"type":"VEC2"
		},
		{
			"bufferView":35,
			"componentType":5123,
			"count":7860,
			"type":"SCALAR"
		},
		{
			"bufferView":36,
			"componentType":5126,
			"count":914,
			"max":[
				0.5588526725769043,
				-0.7697566747665405,
				1
			],
			"min":[
				-0.46340411901474,
				-1,
				-1
			],
			"type":"VEC3"
		},
		{
			"bufferView":37,
			"componentType":5126,
			"count":914,
			"type":"VEC3"
		},
		{
			"bufferView":38,
			"componentType":5126,
			"count":914,
			"type":"VEC2"
		},
		{
			"bufferView":39,
			"componentType":5123,
			"count":3126,
			"type":"SCALAR"
		},
		{
			"bufferView":40,
			"componentType":5126,
			"count":16,
			"max":[
				0.958840012550354,
				-0.9400944709777832,
				0.3514043390750885
			],
			"min":[
				0.6000126600265503,
				-1,
				-0.22717070579528809
			],
			"type":"VEC3"
		},
		{
			"bufferView":41,
			"componentType":5126,
			"count":16,
			"type":"VEC3"
		},
		{
			"bufferView":42,
			"componentType":5126,
			"count":16,
			"type":"VEC2"
		},
		{
			"bufferView":43,
			"componentType":5123,
			"count":24,
			"type":"SCALAR"
		},
		{
			"bufferView":44,
			"componentType":5126,
			"count":4,
			"max":[
				0.956113874912262,
				-0.9400944709777832,
				0.34867823123931885
			],
			"min":[
				0.6027387976646423,
				-0.9400944709777832,
				-0.22444459795951843
			],
			"type":"VEC3"
		},
		{
			"bufferView":45,
			"componentType":5126,
			"count":4,
			"type":"VEC3"
		},
		{
			"bufferView":46,
			"componentType":5126,
			"count":4,
			"type":"VEC2"
		},
		{
			"bufferView":47,
			"componentType":5123,
			"count":6,
			"type":"SCALAR"
		},
		{
			"bufferView":48,
			"componentType":5126,
			"count":128,
			"max":[
				-0.6819108724594116,
				-0.7417277097702026,
				0.9580261707305908
			],
			"min":[
				-0.8742886185646057,
				-0.9826592206954956,
				-0.9500946402549744
			],
			"type":"VEC3"
		},
		{
			"bufferView":49,
			"componentType":5126,
			"count":128,
			"type":"VEC3"
		},
		{
			"bufferView":50,
			"componentType":5126,
			"count":128,
			"type":"VEC2"
		},
		{
			"bufferView":51,
			"componentType":5123,
			"count":192,
			"type":"SCALAR"
		},
		{
			"bufferView":52,
			"componentType":5126,
			"count":4,
			"max":[
				-0.5363293290138245,
				-1.0931953191757202,
				0.8602831959724426
			],
			"min":[
				-0.5485504269599915,
				-1.0931953191757202,
				0.760288655757904
			],
			"type":"VEC3"
		},
		{
			"bufferView":53,
			"componentType":5126,
			"count":4,
			"type":"VEC3"
		},
		{
			"bufferView":54,
			"componentType":5126,
			"count":4,
			"type":"VEC2"
		},
		{
			"bufferView":55,
			"componentType":5123,
			"count":6,
			"type":"SCALAR"
		}
	],
	"bufferViews":[
		{
			"buffer":0,
			"byteLength":288,
			"byteOffset":0,
			"target":34962
		},
		{
			"buffer":0,
			"byteLength":288,
			"byteOffset":288,
			"target":34962
		},
		{
			"buffer":0,
			"byteLength":192,
			"byteOffset":576,
			"target":34962
		},
		{
			"buffer":0,
			"byteLength":72,
			"byteOffset":768,
			"target":34963
		},
		{
			"buffer":0,
			"byteLength":48,
			"byteOffset":840,
			"target":34962
		},
		{
			"buffer":0,
			"byteLength":48,
			"byteOffset":888,
			"target":34962
		},
		{
			"buffer":0,
			"byteLength":32,
			"byteOffset":936,
			"target":34962
		},
		{
			"buffer":0,
			"byteLength":12,
			"byteOffset":968,
			"target":34963
		},
		{
			"buffer":0,
			"byteLength":432,
			"byteOffset":980,
			"target":34962
		},
		{
			"buffer":0,
			"byteLength":432,
			"byteOffset":1412,
			"target":34962
		},
		{
			"buffer":0,
			"byteLength":288,
			"byteOffset":1844,
			"target":34962
		},
		{
			"buffer":0,
			"byteLength":108,
			"byteOffset":2132,
			"target":34963
		},
		{
			"buffer":0,
			"byteLength":864,
			"byteOffset":2240,
			"target":34962
		},
		{
			"buffer":0,
			"byteLength":864,
			"byteOffset":3104,
			"target":34962
		},
		{
			"buffer":0,
			"byteLength":576,
			"byteOffset":3968,
			"target":34962
		},
		{
			"buffer":0,
			"byteLength":228,
			"byteOffset":4544,
			"target":34963
		},
		{
			"buffer":0,
			"byteLength":960,
			"byteOffset":4772,
			"target":34962
		},
		{
			"buffer":0,
			"byteLength":960,
			"byteOffset":5732,
			"target":34962
		},
		{
			"buffer":0,
			"byteLength":640,
			"byteOffset":6692,
			"target":34962
		},
		{
			"buffer":0,
			"byteLength":264,
			"byteOffset":7332,
			"target":34963
		},
		{
			"buffer":0,
			"byteLength":96,
			"byteOffset":7596,
			"target":34962
		},
		{
			"buffer":0,
			"byteLength":96,
			"byteOffset":7692,
			"target":34962
		},
		{
			"buffer":0,
			"byteLength":64,
			"byteOffset":7788,
			"target":34962
		},
		{
			"buffer":0,
			"byteLength":36,
			"byteOffset":7852,
			"target":34963
		},
		{
			"buffer":0,
			"byteLength":192,
			"byteOffset":7888,
			"target":34962
		},
		{
			"buffer":0,
			"byteLength":192,
			"byteOffset":8080,
			"target":34962
		},
		{
			"buffer":0,
			"byteLength":128,
			"byteOffset":8272,
			"target":34962
		},
		{
			"buffer":0,
			"byteLength":48,
			"byteOffset":8400,
			"target":34963
		},
		{
			"buffer":0,
			"byteLength":5616,
			"byteOffset":8448,
			"target":34962
		},
		{
			"buffer":0,
			"byteLength":5616,
			"byteOffset":14064,
			"target":34962
		},
		{
			"buffer":0,
			"byteLength":3744,
			"byteOffset":19680,
			"target":34962
		},
		{
			"buffer":0,
			"byteLength":3012,
			"byteOffset":23424,
			"target":34963
		},
		{
			"buffer":0,
			"byteLength":41640,
			"byteOffset":26436,
			"target":34962
		},
		{
			"buffer":0,
			"byteLength":41640,
			"byteOffset":68076,
			"target":34962
		},
		{
			"buffer":0,
			"byteLength":27760,
			"byteOffset":109716,
			"target":34962
		},
		{
			"buffer":0,
			"byteLength":15720,
			"byteOffset":137476,
			"target":34963
		},
		{
			"buffer":0,
			"byteLength":10968,
			"byteOffset":153196,
			"target":34962
		},
		{
			"buffer":0,
			"byteLength":10968,
			"byteOffset":164164,
			"target":34962
		},
		{
			"buffer":0,
			"byteLength":7312,
			"byteOffset":175132,
			"target":34962
		},
		{
			"buffer":0,
			"byteLength":6252,
			"byteOffset":182444,
			"target":34963
		},
		{
			"buffer":0,
			"byteLength":192,
			"byteOffset":188696,
			"target":34962
		},
		{
			"buffer":0,
			"byteLength":192,
			"byteOffset":188888,
			"target":34962
		},
		{
			"buffer":0,
			"byteLength":128,
			"byteOffset":189080,
			"target":34962
		},
		{
			"buffer":0,
			"byteLength":48,
			"byteOffset":189208,
			"target":34963
		},
		{
			"buffer":0,
			"byteLength":48,
			"byteOffset":189256,
			"target":34962
		},
		{
			"buffer":0,
			"byteLength":48,
			"byteOffset":189304,
			"target":34962
		},
		{
			"buffer":0,
			"byteLength":32,
			"byteOffset":189352,
			"target":34962
		},
		{
			"buffer":0,
			"byteLength":12,
			"byteOffset":189384,
			"target":34963
		},
		{
			"buffer":0,
			"byteLength":1536,
			"byteOffset":189396,
			"target":34962
		},
		{
			"buffer":0,
			"byteLength":1536,
			"byteOffset":190932,
			"target":34962
		},
		{
			"buffer":0,
			"byteLength":1024,
			"byteOffset":192468,
			"target":34962
		},
		{
			"buffer":0,
			"byteLength":384,
			"byteOffset":193492,
			"target":34963
		},
		{
			"buffer":0,
			"byteLength":48,
			"byteOffset":193876,
			"target":34962
		},
		{
			"buffer":0,
			"byteLength":48,
			"byteOffset":193924,
			"target":34962
		},
		{
			"buffer":0,
			"byteLength":32,
			"byteOffset":193972,
			"target":34962
		},
		{
			"buffer":0,
			"byteLength":12,
			"byteOffset":194004,
			"target":34963
		}
	],
	"samplers":[
		{
			"magFilter":9729,
			"minFilter":9987,
			"wrapS":33071,
			"wrapT":33071
		}
	],
	"buffers":[
		{
			"byteLength":194016,
			"uri":"computer.bin"
		}
	]
}
