{
	"asset":{
		"generator":"Khronos glTF Blender I/O v3.6.27",
		"version":"2.0"
	},
	"scene":0,
	"scenes":[
		{
			"name":"Scene",
			"nodes":[
				15
			]
		}
	],
	"nodes":[
		{
			"mesh":0,
			"name":"body",
			"rotation":[
				0.1934143602848053,
				0.09695033729076385,
				-0.3659193217754364,
				0.905148983001709
			],
			"scale":[
				1,
				0.4776901304721832,
				1
			],
			"translation":[
				-0.7472021579742432,
				-0.5364213585853577,
				-0.5298408269882202
			]
		},
		{
			"mesh":1,
			"name":"down.001",
			"rotation":[
				0.249289870262146,
				0.24004755914211273,
				-0.33039456605911255,
				0.8781067132949829
			],
			"scale":[
				0.28817689418792725,
				0.06297986209392548,
				0.28817689418792725
			],
			"translation":[
				0.048690617084503174,
				-1.6134791374206543,
				1.7337448596954346
			]
		},
		{
			"mesh":2,
			"name":"L1",
			"rotation":[
				-0.9051486253738403,
				0.36591947078704834,
				0.0969497561454773,
				0.1934158056974411
			],
			"scale":[
				0.13106423616409302,
				0.2611892521381378,
				0.5555961728096008
			],
			"translation":[
				-1.3817933797836304,
				-1.1993446350097656,
				2.6220591068267822
			]
		},
		{
			"mesh":3,
			"name":"left",
			"rotation":[
				0.19341441988945007,
				0.09695035964250565,
				-0.3659193515777588,
				0.905148983001709
			],
			"scale":[
				0.28393039107322693,
				0.0682007372379303,
				0.2839300036430359
			],
			"translation":[
				-0.267494261264801,
				0.5299785137176514,
				-2.3778419494628906
			]
		},
		{
			"mesh":4,
			"name":"left joystick",
			"rotation":[
				0.19341439008712769,
				0.09695034474134445,
				-0.3659193217754364,
				0.9051489233970642
			],
			"scale":[
				0.5621821284294128,
				0.13503746688365936,
				0.5621821284294128
			],
			"translation":[
				0.21949094533920288,
				-1.0927245616912842,
				0.22218996286392212
			]
		},
		{
			"mesh":5,
			"name":"left.001",
			"rotation":[
				-0.0573510006070137,
				-0.451177179813385,
				-0.4098982810974121,
				0.7906537652015686
			],
			"scale":[
				0.28817689418792725,
				0.06297986209392548,
				0.28817689418792725
			],
			"translation":[
				-0.17845883965492249,
				-1.558337926864624,
				2.1551358699798584
			]
		},
		{
			"mesh":6,
			"name":"R1",
			"rotation":[
				0.19341439008712769,
				0.09695034474134445,
				-0.3659193217754364,
				0.9051489233970642
			],
			"scale":[
				0.13106423616409302,
				0.2611892521381378,
				0.555596113204956
			],
			"translation":[
				-1.5921202898025513,
				1.4085402488708496,
				-2.99133563041687
			]
		},
		{
			"mesh":7,
			"name":"right",
			"rotation":[
				0.19341441988945007,
				0.09695035964250565,
				-0.3659193515777588,
				0.905148983001709
			],
			"scale":[
				0.28393039107322693,
				0.0682007372379303,
				0.28393036127090454
			],
			"translation":[
				-0.2995697855949402,
				0.9276828765869141,
				-3.2338898181915283
			]
		},
		{
			"mesh":8,
			"name":"down",
			"rotation":[
				0.1934143602848053,
				0.09695032984018326,
				-0.3659192621707916,
				0.905148983001709
			],
			"scale":[
				0.2839300036430359,
				0.06820099800825119,
				0.28393036127090454
			],
			"translation":[
				0.017902731895446777,
				0.46379709243774414,
				-2.937506914138794
			]
		},
		{
			"mesh":9,
			"name":"right joystick",
			"rotation":[
				0.19341439008712769,
				0.09695034474134445,
				-0.3659193217754364,
				0.9051489233970642
			],
			"scale":[
				0.5621821284294128,
				0.13503746688365936,
				0.5621821284294128
			],
			"translation":[
				0.1541135311126709,
				-0.28209829330444336,
				-1.5226590633392334
			]
		},
		{
			"mesh":10,
			"name":"right.001",
			"rotation":[
				0.4098988175392151,
				0.7906542420387268,
				-0.057349879294633865,
				0.45117631554603577
			],
			"scale":[
				0.28817689418792725,
				0.06297986209392548,
				0.28817689418792725
			],
			"translation":[
				-0.18577486276626587,
				-1.2733607292175293,
				1.5074970722198486
			]
		},
		{
			"mesh":11,
			"name":"touchpad",
			"rotation":[
				0.1934143751859665,
				0.09695034474134445,
				-0.3659193217754364,
				0.9051489233970642
			],
			"scale":[
				0.6302356123924255,
				0.08510595560073853,
				1.27130925655365
			],
			"translation":[
				-0.8414268493652344,
				0.1407463550567627,
				-0.21171024441719055
			]
		},
		{
			"mesh":12,
			"name":"touchpad inner",
			"rotation":[
				0.1934143751859665,
				0.09695034474134445,
				-0.3659193217754364,
				0.9051489233970642
			],
			"scale":[
				0.6302356123924255,
				0.08510595560073853,
				1.27130925655365
			],
			"translation":[
				-0.8414268493652344,
				0.1407463550567627,
				-0.21171024441719055
			]
		},
		{
			"mesh":13,
			"name":"up",
			"rotation":[
				0.19341441988945007,
				0.09695035964250565,
				-0.3659193515777588,
				0.905148983001709
			],
			"scale":[
				0.28393039107322693,
				0.0682007372379303,
				0.28393036127090454
			],
			"translation":[
				-0.5928574204444885,
				0.9988014698028564,
				-2.6660680770874023
			]
		},
		{
			"mesh":14,
			"name":"up.001",
			"rotation":[
				-0.33039531111717224,
				-0.8781070709228516,
				-0.24928852915763855,
				0.24004609882831573
			],
			"scale":[
				0.28817689418792725,
				0.06297986209392548,
				0.28817689418792725
			],
			"translation":[
				-0.3986942768096924,
				-1.2246778011322021,
				1.93788743019104
			]
		},
		{
			"children":[
				0,
				1,
				2,
				3,
				4,
				5,
				6,
				7,
				8,
				9,
				10,
				11,
				12,
				13,
				14
			],
			"name":"Empty",
			"translation":[
				0.47227025032043457,
				0.7881574630737305,
				0.4217408299446106
			]
		}
	],
	"animations":[
		{
			"channels":[
				{
					"sampler":0,
					"target":{
						"node":15,
						"path":"rotation"
					}
				}
			],
			"name":"EmptyAction",
			"samplers":[
				{
					"input":52,
					"interpolation":"LINEAR",
					"output":53
				}
			]
		}
	],
	"materials":[
		{
			"doubleSided":true,
			"name":"Body",
			"pbrMetallicRoughness":{
				"baseColorFactor":[
					0.008666632696986198,
					0.07726074755191803,
					0.2720830738544464,
					1
				],
				"metallicFactor":0,
				"roughnessFactor":0.5
			}
		},
		{
			"doubleSided":true,
			"name":"button",
			"pbrMetallicRoughness":{
				"baseColorFactor":[
					0.09817014634609222,
					0.09817014634609222,
					0.09817014634609222,
					1
				],
				"metallicFactor":0.290909081697464,
				"roughnessFactor":0.2927272617816925
			}
		},
		{
			"doubleSided":true,
			"name":"joystick",
			"pbrMetallicRoughness":{
				"baseColorFactor":[
					0.21631081402301788,
					0.21631081402301788,
					0.21631081402301788,
					1
				],
				"metallicFactor":0.290909081697464,
				"roughnessFactor":0.2927272617816925
			}
		},
		{
			"doubleSided":true,
			"name":"touchpad",
			"pbrMetallicRoughness":{
				"baseColorFactor":[
					0.013109355233609676,
					0.013109355233609676,
					0.013109355233609676,
					1
				],
				"metallicFactor":0.7090908885002136,
				"roughnessFactor":0.2927272617816925
			}
		},
		{
			"doubleSided":true,
			"name":"touchpad_inner",
			"pbrMetallicRoughness":{
				"baseColorFactor":[
					0.009954432025551796,
					0.009954432025551796,
					0.009954432025551796,
					1
				]
			}
		}
	],
	"meshes":[
		{
			"name":"Cube",
			"primitives":[
				{
					"attributes":{
						"POSITION":0,
						"NORMAL":1,
						"TEXCOORD_0":2
					},
					"indices":3,
					"material":0
				}
			]
		},
		{
			"name":"Cylinder.010",
			"primitives":[
				{
					"attributes":{
						"POSITION":4,
						"NORMAL":5,
						"TEXCOORD_0":6
					},
					"indices":7,
					"material":1
				}
			]
		},
		{
			"name":"Cube.001",
			"primitives":[
				{
					"attributes":{
						"POSITION":8,
						"NORMAL":9,
						"TEXCOORD_0":10
					},
					"indices":11,
					"material":2
				}
			]
		},
		{
			"name":"Cylinder",
			"primitives":[
				{
					"attributes":{
						"POSITION":12,
						"NORMAL":13,
						"TEXCOORD_0":14
					},
					"indices":15,
					"material":1
				}
			]
		},
		{
			"name":"Cylinder.014",
			"primitives":[
				{
					"attributes":{
						"POSITION":16,
						"NORMAL":17,
						"TEXCOORD_0":18
					},
					"indices":19,
					"material":2
				}
			]
		},
		{
			"name":"Cylinder.013",
			"primitives":[
				{
					"attributes":{
						"POSITION":20,
						"NORMAL":21,
						"TEXCOORD_0":22
					},
					"indices":7,
					"material":1
				}
			]
		},
		{
			"name":"Cube.002",
			"primitives":[
				{
					"attributes":{
						"POSITION":23,
						"NORMAL":24,
						"TEXCOORD_0":25
					},
					"indices":11,
					"material":2
				}
			]
		},
		{
			"name":"Cylinder.001",
			"primitives":[
				{
					"attributes":{
						"POSITION":26,
						"NORMAL":27,
						"TEXCOORD_0":28
					},
					"indices":15,
					"material":1
				}
			]
		},
		{
			"name":"Cylinder.002",
			"primitives":[
				{
					"attributes":{
						"POSITION":29,
						"NORMAL":30,
						"TEXCOORD_0":31
					},
					"indices":15,
					"material":1
				}
			]
		},
		{
			"name":"Cylinder.004",
			"primitives":[
				{
					"attributes":{
						"POSITION":32,
						"NORMAL":33,
						"TEXCOORD_0":34
					},
					"indices":19,
					"material":2
				}
			]
		},
		{
			"name":"Cylinder.011",
			"primitives":[
				{
					"attributes":{
						"POSITION":35,
						"NORMAL":36,
						"TEXCOORD_0":37
					},
					"indices":7,
					"material":1
				}
			]
		},
		{
			"name":"Cube.003",
			"primitives":[
				{
					"attributes":{
						"POSITION":38,
						"NORMAL":39,
						"TEXCOORD_0":40
					},
					"indices":41,
					"material":3
				}
			]
		},
		{
			"name":"Cube.004",
			"primitives":[
				{
					"attributes":{
						"POSITION":42,
						"NORMAL":43,
						"TEXCOORD_0":44
					},
					"indices":45,
					"material":4
				}
			]
		},
		{
			"name":"Cylinder.003",
			"primitives":[
				{
					"attributes":{
						"POSITION":46,
						"NORMAL":47,
						"TEXCOORD_0":48
					},
					"indices":15,
					"material":1
				}
			]
		},
		{
			"name":"Cylinder.012",
			"primitives":[
				{
					"attributes":{
						"POSITION":49,
						"NORMAL":50,
						"TEXCOORD_0":51
					},
					"indices":7,
					"material":1
				}
			]
		}
	],
	"accessors":[
		{
			"bufferView":0,
			"componentType":5126,
			"count":322,
			"max":[
				3.7492752075195312,
				1.109503984451294,
				3.867819309234619
			],
			"min":[
				-1.2639495134353638,
				-2.448307514190674,
				-3.867819309234619
			],
			"type":"VEC3"
		},
		{
			"bufferView":1,
			"componentType":5126,
			"count":322,
			"type":"VEC3"
		},
		{
			"bufferView":2,
			"componentType":5126,
			"count":322,
			"type":"VEC2"
		},
		{
			"bufferView":3,
			"componentType":5123,
			"count":528,
			"type":"SCALAR"
		},
		{
			"bufferView":4,
			"componentType":5126,
			"count":30,
			"max":[
				0.9510565400123596,
				1,
				0.80901700258255
			],
			"min":[
				-0.8393872976303101,
				-1,
				-0.6861498355865479
			],
			"type":"VEC3"
		},
		{
			"bufferView":5,
			"componentType":5126,
			"count":30,
			"type":"VEC3"
		},
		{
			"bufferView":6,
			"componentType":5126,
			"count":30,
			"type":"VEC2"
		},
		{
			"bufferView":7,
			"componentType":5123,
			"count":48,
			"type":"SCALAR"
		},
		{
			"bufferView":8,
			"componentType":5126,
			"count":40,
			"max":[
				2.5882537364959717,
				1,
				1
			],
			"min":[
				-0.597350537776947,
				-1,
				-0.7167020440101624
			],
			"type":"VEC3"
		},
		{
			"bufferView":9,
			"componentType":5126,
			"count":40,
			"type":"VEC3"
		},
		{
			"bufferView":10,
			"componentType":5126,
			"count":40,
			"type":"VEC2"
		},
		{
			"bufferView":11,
			"componentType":5123,
			"count":60,
			"type":"SCALAR"
		},
		{
			"bufferView":12,
			"componentType":5126,
			"count":36,
			"max":[
				0.8660253882408142,
				1,
				1
			],
			"min":[
				-0.8660253882408142,
				-1,
				-1
			],
			"type":"VEC3"
		},
		{
			"bufferView":13,
			"componentType":5126,
			"count":36,
			"type":"VEC3"
		},
		{
			"bufferView":14,
			"componentType":5126,
			"count":36,
			"type":"VEC2"
		},
		{
			"bufferView":15,
			"componentType":5123,
			"count":60,
			"type":"SCALAR"
		},
		{
			"bufferView":16,
			"componentType":5126,
			"count":60,
			"max":[
				0.8660253882408142,
				1,
				1
			],
			"min":[
				-0.8660253882408142,
				-1,
				-1
			],
			"type":"VEC3"
		},
		{
			"bufferView":17,
			"componentType":5126,
			"count":60,
			"type":"VEC3"
		},
		{
			"bufferView":18,
			"componentType":5126,
			"count":60,
			"type":"VEC2"
		},
		{
			"bufferView":19,
			"componentType":5123,
			"count":96,
			"type":"SCALAR"
		},
		{
			"bufferView":20,
			"componentType":5126,
			"count":30,
			"max":[
				0.9510565400123596,
				1,
				0.80901700258255
			],
			"min":[
				-0.8393872976303101,
				-1,
				-0.6861498355865479
			],
			"type":"VEC3"
		},
		{
			"bufferView":21,
			"componentType":5126,
			"count":30,
			"type":"VEC3"
		},
		{
			"bufferView":22,
			"componentType":5126,
			"count":30,
			"type":"VEC2"
		},
		{
			"bufferView":23,
			"componentType":5126,
			"count":40,
			"max":[
				2.5882537364959717,
				1,
				1
			],
			"min":[
				-0.597350537776947,
				-1,
				-0.7167020440101624
			],
			"type":"VEC3"
		},
		{
			"bufferView":24,
			"componentType":5126,
			"count":40,
			"type":"VEC3"
		},
		{
			"bufferView":25,
			"componentType":5126,
			"count":40,
			"type":"VEC2"
		},
		{
			"bufferView":26,
			"componentType":5126,
			"count":36,
			"max":[
				0.8660253882408142,
				1,
				1
			],
			"min":[
				-0.8660253882408142,
				-1,
				-1
			],
			"type":"VEC3"
		},
		{
			"bufferView":27,
			"componentType":5126,
			"count":36,
			"type":"VEC3"
		},
		{
			"bufferView":28,
			"componentType":5126,
			"count":36,
			"type":"VEC2"
		},
		{
			"bufferView":29,
			"componentType":5126,
			"count":36,
			"max":[
				0.8660253882408142,
				1,
				1
			],
			"min":[
				-0.8660253882408142,
				-1,
				-1
			],
			"type":"VEC3"
		},
		{
			"bufferView":30,
			"componentType":5126,
			"count":36,
			"type":"VEC3"
		},
		{
			"bufferView":31,
			"componentType":5126,
			"count":36,
			"type":"VEC2"
		},
		{
			"bufferView":32,
			"componentType":5126,
			"count":60,
			"max":[
				0.8660253882408142,
				1,
				1
			],
			"min":[
				-0.8660253882408142,
				-1,
				-1
			],
			"type":"VEC3"
		},
		{
			"bufferView":33,
			"componentType":5126,
			"count":60,
			"type":"VEC3"
		},
		{
			"bufferView":34,
			"componentType":5126,
			"count":60,
			"type":"VEC2"
		},
		{
			"bufferView":35,
			"componentType":5126,
			"count":30,
			"max":[
				0.9510565400123596,
				1,
				0.80901700258255
			],
			"min":[
				-0.8393872976303101,
				-1,
				-0.6861498355865479
			],
			"type":"VEC3"
		},
		{
			"bufferView":36,
			"componentType":5126,
			"count":30,
			"type":"VEC3"
		},
		{
			"bufferView":37,
			"componentType":5126,
			"count":30,
			"type":"VEC2"
		},
		{
			"bufferView":38,
			"componentType":5126,
			"count":51,
			"max":[
				1.2325700521469116,
				1,
				1
			],
			"min":[
				-1,
				-1,
				-1
			],
			"type":"VEC3"
		},
		{
			"bufferView":39,
			"componentType":5126,
			"count":51,
			"type":"VEC3"
		},
		{
			"bufferView":40,
			"componentType":5126,
			"count":51,
			"type":"VEC2"
		},
		{
			"bufferView":41,
			"componentType":5123,
			"count":120,
			"type":"SCALAR"
		},
		{
			"bufferView":42,
			"componentType":5126,
			"count":9,
			"max":[
				1.1708590984344482,
				1,
				0.9382890462875366
			],
			"min":[
				-0.9358581900596619,
				1,
				-0.9382890462875366
			],
			"type":"VEC3"
		},
		{
			"bufferView":43,
			"componentType":5126,
			"count":9,
			"type":"VEC3"
		},
		{
			"bufferView":44,
			"componentType":5126,
			"count":9,
			"type":"VEC2"
		},
		{
			"bufferView":45,
			"componentType":5123,
			"count":24,
			"type":"SCALAR"
		},
		{
			"bufferView":46,
			"componentType":5126,
			"count":36,
			"max":[
				0.8660253882408142,
				1,
				1
			],
			"min":[
				-0.8660253882408142,
				-1,
				-1
			],
			"type":"VEC3"
		},
		{
			"bufferView":47,
			"componentType":5126,
			"count":36,
			"type":"VEC3"
		},
		{
			"bufferView":48,
			"componentType":5126,
			"count":36,
			"type":"VEC2"
		},
		{
			"bufferView":49,
			"componentType":5126,
			"count":30,
			"max":[
				0.9510565400123596,
				1,
				0.80901700258255
			],
			"min":[
				-0.8393872976303101,
				-1,
				-0.6861498355865479
			],
			"type":"VEC3"
		},
		{
			"bufferView":50,
			"componentType":5126,
			"count":30,
			"type":"VEC3"
		},
		{
			"bufferView":51,
			"componentType":5126,
			"count":30,
			"type":"VEC2"
		},
		{
			"bufferView":52,
			"componentType":5126,
			"count":301,
			"max":[
				12.541666666666666
			],
			"min":[
				0.041666666666666664
			],
			"type":"SCALAR"
		},
		{
			"bufferView":53,
			"componentType":5126,
			"count":301,
			"type":"VEC4"
		}
	],
	"bufferViews":[
		{
			"buffer":0,
			"byteLength":3864,
			"byteOffset":0,
			"target":34962
		},
		{
			"buffer":0,
			"byteLength":3864,
			"byteOffset":3864,
			"target":34962
		},
		{
			"buffer":0,
			"byteLength":2576,
			"byteOffset":7728,
			"target":34962
		},
		{
			"buffer":0,
			"byteLength":1056,
			"byteOffset":10304,
			"target":34963
		},
		{
			"buffer":0,
			"byteLength":360,
			"byteOffset":11360,
			"target":34962
		},
		{
			"buffer":0,
			"byteLength":360,
			"byteOffset":11720,
			"target":34962
		},
		{
			"buffer":0,
			"byteLength":240,
			"byteOffset":12080,
			"target":34962
		},
		{
			"buffer":0,
			"byteLength":96,
			"byteOffset":12320,
			"target":34963
		},
		{
			"buffer":0,
			"byteLength":480,
			"byteOffset":12416,
			"target":34962
		},
		{
			"buffer":0,
			"byteLength":480,
			"byteOffset":12896,
			"target":34962
		},
		{
			"buffer":0,
			"byteLength":320,
			"byteOffset":13376,
			"target":34962
		},
		{
			"buffer":0,
			"byteLength":120,
			"byteOffset":13696,
			"target":34963
		},
		{
			"buffer":0,
			"byteLength":432,
			"byteOffset":13816,
			"target":34962
		},
		{
			"buffer":0,
			"byteLength":432,
			"byteOffset":14248,
			"target":34962
		},
		{
			"buffer":0,
			"byteLength":288,
			"byteOffset":14680,
			"target":34962
		},
		{
			"buffer":0,
			"byteLength":120,
			"byteOffset":14968,
			"target":34963
		},
		{
			"buffer":0,
			"byteLength":720,
			"byteOffset":15088,
			"target":34962
		},
		{
			"buffer":0,
			"byteLength":720,
			"byteOffset":15808,
			"target":34962
		},
		{
			"buffer":0,
			"byteLength":480,
			"byteOffset":16528,
			"target":34962
		},
		{
			"buffer":0,
			"byteLength":192,
			"byteOffset":17008,
			"target":34963
		},
		{
			"buffer":0,
			"byteLength":360,
			"byteOffset":17200,
			"target":34962
		},
		{
			"buffer":0,
			"byteLength":360,
			"byteOffset":17560,
			"target":34962
		},
		{
			"buffer":0,
			"byteLength":240,
			"byteOffset":17920,
			"target":34962
		},
		{
			"buffer":0,
			"byteLength":480,
			"byteOffset":18160,
			"target":34962
		},
		{
			"buffer":0,
			"byteLength":480,
			"byteOffset":18640,
			"target":34962
		},
		{
			"buffer":0,
			"byteLength":320,
			"byteOffset":19120,
			"target":34962
		},
		{
			"buffer":0,
			"byteLength":432,
			"byteOffset":19440,
			"target":34962
		},
		{
			"buffer":0,
			"byteLength":432,
			"byteOffset":19872,
			"target":34962
		},
		{
			"buffer":0,
			"byteLength":288,
			"byteOffset":20304,
			"target":34962
		},
		{
			"buffer":0,
			"byteLength":432,
			"byteOffset":20592,
			"target":34962
		},
		{
			"buffer":0,
			"byteLength":432,
			"byteOffset":21024,
			"target":34962
		},
		{
			"buffer":0,
			"byteLength":288,
			"byteOffset":21456,
			"target":34962
		},
		{
			"buffer":0,
			"byteLength":720,
			"byteOffset":21744,
			"target":34962
		},
		{
			"buffer":0,
			"byteLength":720,
			"byteOffset":22464,
			"target":34962
		},
		{
			"buffer":0,
			"byteLength":480,
			"byteOffset":23184,
			"target":34962
		},
		{
			"buffer":0,
			"byteLength":360,
			"byteOffset":23664,
			"target":34962
		},
		{
			"buffer":0,
			"byteLength":360,
			"byteOffset":24024,
			"target":34962
		},
		{
			"buffer":0,
			"byteLength":240,
			"byteOffset":24384,
			"target":34962
		},
		{
			"buffer":0,
			"byteLength":612,
			"byteOffset":24624,
			"target":34962
		},
		{
			"buffer":0,
			"byteLength":612,
			"byteOffset":25236,
			"target":34962
		},
		{
			"buffer":0,
			"byteLength":408,
			"byteOffset":25848,
			"target":34962
		},
		{
			"buffer":0,
			"byteLength":240,
			"byteOffset":26256,
			"target":34963
		},
		{
			"buffer":0,
			"byteLength":108,
			"byteOffset":26496,
			"target":34962
		},
		{
			"buffer":0,
			"byteLength":108,
			"byteOffset":26604,
			"target":34962
		},
		{
			"buffer":0,
			"byteLength":72,
			"byteOffset":26712,
			"target":34962
		},
		{
			"buffer":0,
			"byteLength":48,
			"byteOffset":26784,
			"target":34963
		},
		{
			"buffer":0,
			"byteLength":432,
			"byteOffset":26832,
			"target":34962
		},
		{
			"buffer":0,
			"byteLength":432,
			"byteOffset":27264,
			"target":34962
		},
		{
			"buffer":0,
			"byteLength":288,
			"byteOffset":27696,
			"target":34962
		},
		{
			"buffer":0,
			"byteLength":360,
			"byteOffset":27984,
			"target":34962
		},
		{
			"buffer":0,
			"byteLength":360,
			"byteOffset":28344,
			"target":34962
		},
		{
			"buffer":0,
			"byteLength":240,
			"byteOffset":28704,
			"target":34962
		},
		{
			"buffer":0,
			"byteLength":1204,
			"byteOffset":28944
		},
		{
			"buffer":0,
			"byteLength":4816,
			"byteOffset":30148
		}
	],
	"buffers":[
		{
			"byteLength":34964,
			"uri":"controller.bin"
		}
	]
}
